<svg width="722" height="459" viewBox="0 0 722 459" fill="none" xmlns="http://www.w3.org/2000/svg">
<g clip-path="url(#clip0_2_446)">
<path d="M287.69 455.29C288.003 418.038 303.022 382.418 329.474 356.187C355.927 329.956 391.672 315.238 428.925 315.238C466.178 315.238 501.923 329.956 528.376 356.187C554.828 382.418 569.846 418.038 570.16 455.29H287.69Z" fill="#D0D1D0"/>
<path d="M321.35 184.08L411.75 446.08H395.07L257.95 195.41L321.35 184.08Z" fill="black"/>
<path d="M721.55 454.78H23.55" stroke="black" stroke-width="1.18" stroke-miterlimit="10"/>
<path d="M398.91 454.53L395.6 446.1H412.35C419.05 446.1 422.77 448.78 427.92 451.97C428.126 452.074 428.29 452.246 428.383 452.457C428.477 452.668 428.494 452.905 428.433 453.128C428.372 453.35 428.235 453.545 428.047 453.678C427.859 453.812 427.63 453.876 427.4 453.86L398.91 454.53Z" stroke="black" stroke-miterlimit="10"/>
<path d="M311.83 384.85L315.01 376.66L327.11 376.82C333.81 376.82 337.53 379.5 342.68 382.68C342.887 382.784 343.052 382.957 343.145 383.17C343.239 383.382 343.256 383.62 343.193 383.843C343.131 384.067 342.992 384.261 342.802 384.394C342.612 384.526 342.381 384.589 342.15 384.57L311.83 384.85Z" stroke="black" stroke-miterlimit="10"/>
<path d="M303.15 97.9C304.34 106.3 314.45 145.5 314.45 145.5L403.76 107.5L413.35 119.5C413.35 119.5 354.65 151.84 318.72 168.61C282.79 185.38 276.78 142.26 269.61 94.37" stroke="black" stroke-width="1.56" stroke-miterlimit="10"/>
<path d="M319.91 78.78L318.91 87.54C318.882 87.7431 318.803 87.9358 318.68 88.0999C318.559 88.2629 318.397 88.3906 318.21 88.4699C318.021 88.55 317.814 88.581 317.61 88.56C317.408 88.5363 317.215 88.4605 317.05 88.34L316.53 87.93L316.77 84.59C316.986 81.7515 316.426 78.9076 315.151 76.3625C313.875 73.8174 311.933 71.6666 309.53 70.14L289.93 57.68C289.217 57.2418 288.446 56.9052 287.64 56.68L292.08 51.77C292.412 51.4172 292.813 51.138 293.259 50.9503C293.705 50.7625 294.186 50.6704 294.67 50.68C295.152 50.7001 295.626 50.8192 296.06 51.03C296.497 51.2458 296.882 51.5527 297.19 51.93L319.91 78.78Z" stroke="black" stroke-width="1.56" stroke-miterlimit="10"/>
<path d="M287.68 56.6C288.486 56.8252 289.257 57.1618 289.97 57.6L309.57 70.0601C311.973 71.5867 313.915 73.7375 315.191 76.2826C316.466 78.8277 317.026 81.6715 316.81 84.51L316.57 87.85" stroke="black" stroke-width="1.56" stroke-miterlimit="10"/>
<path d="M305.77 171.78L304.26 184" stroke="black" stroke-width="1.56" stroke-miterlimit="10"/>
<path d="M316.55 87.91L310.99 131.16" stroke="black" stroke-width="1.56" stroke-miterlimit="10"/>
<path d="M232.36 183.15C244.91 120.29 265.79 67.58 287.68 56.6" stroke="black" stroke-width="1.56" stroke-miterlimit="10"/>
<path d="M312.31 50.63C312.31 50.63 327.65 61.4901 330.72 59.7101C333.79 57.9301 335.98 47.79 335.98 47.79C337.66 48.03 338.98 48.46 340.63 47.99C342.18 47.2 339.44 40.34 339.73 35.42C340.02 30.5 341.45 24.02 339.89 21.02" stroke="black" stroke-width="1.56" stroke-miterlimit="10"/>
<path d="M295.95 51.1901C299.172 48.1976 302.068 44.8723 304.59 41.27" stroke="black" stroke-width="1.56" stroke-miterlimit="10"/>
<path d="M320.99 57.86C320.99 57.86 312.6 67.6701 312.66 71.4601" stroke="black" stroke-width="1.56" stroke-miterlimit="10"/>
<path d="M379.72 117.78L387.83 133.35" stroke="black" stroke-width="1.56" stroke-miterlimit="10"/>
<path d="M404.96 108.69C404.96 108.69 407.57 102.37 409.15 101C410.15 100.12 413.05 101.13 414.97 102C415.146 102.077 415.297 102.201 415.408 102.358C415.519 102.515 415.586 102.698 415.6 102.89C415.619 103.083 415.58 103.278 415.49 103.45C415.406 103.624 415.275 103.77 415.11 103.87L412.11 105.8C412.11 105.8 412.03 108.92 414.29 109.04C415.85 109.04 425.61 104.24 430.89 101.52C431.009 101.476 431.141 101.476 431.26 101.52C431.385 101.556 431.494 101.634 431.57 101.74C431.64 101.846 431.672 101.973 431.66 102.1C431.653 102.228 431.599 102.349 431.51 102.44C426.28 107.33 420.51 114.44 412.14 118.34" stroke="black" stroke-width="1.56" stroke-miterlimit="10"/>
<path d="M412.12 105.78L441.62 91.85C441.759 91.7874 441.908 91.7534 442.06 91.75C442.208 91.7511 442.354 91.7817 442.49 91.8401C442.627 91.8956 442.751 91.9809 442.851 92.0898C442.951 92.1988 443.026 92.3286 443.07 92.47L443.54 93.89C443.65 94.18 443.65 94.5001 443.54 94.79C443.423 95.0771 443.201 95.3093 442.92 95.4401L413.97 109.33L412.12 105.78Z" fill="black"/>
<path d="M269.01 95.23C269.01 95.23 263.8 184.23 304.26 183.99L305.12 172.27C305.12 172.27 291.61 173.27 284.37 158.8C277.13 144.33 269.01 95.23 269.01 95.23Z" fill="black"/>
<path d="M303.67 97.8401L312 123.05L311 130.7L305.72 110.17L303.67 97.8401Z" fill="black"/>
<path d="M299.34 47.85L312.64 69.5701L296.18 50.99L299.34 47.85Z" fill="black"/>
<path d="M300.16 45.09C299.29 42.79 290.33 12.71 299.27 6.36995C308.21 0.029953 324.07 -1.69997 335.6 3.20003C347.13 8.10003 346.77 17.5 339.89 21.02C333.01 24.54 319.74 19.9199 318.3 22.2299C317.658 23.3976 317.219 24.6655 317 25.9799C316.949 26.2627 316.836 26.5304 316.667 26.7631C316.499 26.9958 316.28 27.1876 316.027 27.3241C315.775 27.4605 315.494 27.5382 315.207 27.5513C314.92 27.5645 314.634 27.5128 314.37 27.4C313.311 26.9057 312.113 26.7927 310.98 27.08C307.52 27.95 309.65 42.42 307.05 44.15C304.45 45.88 300.16 45.09 300.16 45.09Z" fill="black"/>
<path d="M339.01 231.23C317.94 236.68 287.7 239.02 263.24 231.64C243 225.52 235.08 205.77 231.33 182.64C239.83 188.55 264.73 184.3 303.23 183.48L388.82 184.48C391.559 184.512 394.249 185.208 396.658 186.509C399.068 187.811 401.126 189.678 402.655 191.95C404.183 194.222 405.137 196.832 405.434 199.555C405.731 202.277 405.363 205.031 404.36 207.58L330.49 376.91L315.01 376.64L359.62 223.15C355.12 226.06 347.88 228.91 339.01 231.21C317.94 236.66 287.7 239 263.24 231.62" fill="black"/>
<path d="M342.82 235.64H239.57C236.135 235.64 233.35 238.425 233.35 241.86V244.09C233.35 247.525 236.135 250.31 239.57 250.31H342.82C346.255 250.31 349.04 247.525 349.04 244.09V241.86C349.04 238.425 346.255 235.64 342.82 235.64Z" fill="white" stroke="black" stroke-width="1.29" stroke-miterlimit="10"/>
<path d="M251.84 250.53L220.28 454.4" stroke="black" stroke-width="1.29" stroke-miterlimit="10"/>
<path d="M333.95 250.53L365.5 454.4" stroke="black" stroke-width="1.29" stroke-miterlimit="10"/>
<path d="M292.89 250.86V454.4" stroke="black" stroke-width="1.29" stroke-miterlimit="10"/>
<path d="M232.42 384.31L353.06 385.07" stroke="black" stroke-width="1.29" stroke-miterlimit="10"/>
<path d="M101.72 390.68H169.07L162.36 457.06H106.88L101.72 390.68Z" stroke="black" stroke-miterlimit="10"/>
<path d="M58.5701 458.64C59.9401 458.64 106.69 442.64 106.69 442.64L107.69 456.64L58.5701 458.64Z" fill="black"/>
<path d="M105.53 308.96L133.77 332.84C133.77 332.84 133.34 379.12 133.39 382.23" stroke="black" stroke-miterlimit="10"/>
<path d="M126.64 326.81L134.22 276.3L177.09 250.95" stroke="black" stroke-miterlimit="10" stroke-linecap="round"/>
<path d="M151.87 265.86L116.25 197.82L79.7 177.84" stroke="black" stroke-miterlimit="10" stroke-linecap="round"/>
<path d="M119.46 309.33C118.46 310.55 115.84 310.04 115.84 310.04C115.84 310.04 114.74 307.57 115.7 306.36C115.876 306.059 116.115 305.8 116.4 305.6C116.685 305.4 117.01 305.263 117.353 305.2C117.695 305.136 118.048 305.147 118.386 305.231C118.724 305.316 119.04 305.472 119.312 305.689C119.584 305.907 119.807 306.18 119.964 306.491C120.122 306.802 120.211 307.143 120.225 307.491C120.239 307.839 120.178 308.186 120.046 308.509C119.914 308.831 119.714 309.121 119.46 309.36V309.33Z" fill="black"/>
<path d="M115.65 314.78C114.65 313.59 115.65 311.1 115.65 311.1C115.65 311.1 118.29 310.53 119.28 311.72C119.54 311.952 119.747 312.237 119.887 312.556C120.027 312.875 120.096 313.22 120.09 313.568C120.084 313.916 120.003 314.259 119.853 314.573C119.702 314.887 119.486 315.165 119.218 315.388C118.95 315.611 118.637 315.773 118.301 315.864C117.965 315.954 117.613 315.971 117.27 315.914C116.926 315.856 116.599 315.725 116.311 315.529C116.023 315.333 115.781 315.078 115.6 314.78H115.65Z" fill="black"/>
<path d="M111.51 311.52C112.92 312.15 115.05 310.52 115.05 310.52C115.05 310.52 114.89 307.82 113.48 307.18C113.187 306.989 112.857 306.863 112.511 306.811C112.165 306.76 111.812 306.783 111.476 306.88C111.14 306.977 110.829 307.146 110.564 307.374C110.3 307.603 110.087 307.885 109.942 308.203C109.796 308.521 109.721 308.867 109.721 309.217C109.721 309.566 109.797 309.912 109.943 310.229C110.089 310.547 110.302 310.83 110.567 311.057C110.833 311.285 111.144 311.453 111.48 311.55L111.51 311.52Z" fill="black"/>
<path d="M101.12 301.29C102.27 302.29 101.62 304.94 101.62 304.94C101.62 304.94 99.0898 305.94 97.9298 304.87C97.6319 304.681 97.3786 304.43 97.1874 304.134C96.9962 303.838 96.8719 303.503 96.8229 303.154C96.7739 302.805 96.8014 302.449 96.9037 302.112C97.006 301.774 97.1804 301.463 97.4149 301.2C97.6495 300.937 97.9386 300.728 98.2621 300.587C98.5856 300.447 98.9357 300.379 99.2882 300.387C99.6407 300.396 99.9873 300.481 100.304 300.637C100.62 300.793 100.898 301.016 101.12 301.29Z" fill="black"/>
<path d="M106.34 305.41C105.1 306.33 102.66 305.15 102.66 305.15C102.66 305.15 102.25 302.47 103.49 301.55C103.736 301.299 104.034 301.104 104.363 300.979C104.692 300.854 105.044 300.802 105.395 300.826C105.746 300.851 106.087 300.951 106.396 301.12C106.704 301.29 106.972 301.524 107.181 301.807C107.39 302.09 107.535 302.415 107.606 302.76C107.677 303.104 107.672 303.46 107.592 303.803C107.512 304.145 107.359 304.467 107.143 304.744C106.927 305.022 106.653 305.249 106.34 305.41Z" fill="black"/>
<path d="M102.84 309.35C103.56 307.98 102.02 305.76 102.02 305.76C102.02 305.76 99.31 305.76 98.59 307.13C98.3779 307.412 98.2295 307.736 98.1554 308.081C98.0814 308.426 98.0834 308.783 98.1611 309.127C98.2387 309.471 98.3904 309.794 98.6054 310.073C98.8204 310.353 99.0936 310.582 99.4062 310.745C99.7188 310.909 100.063 311.002 100.415 311.019C100.768 311.035 101.12 310.975 101.446 310.843C101.773 310.71 102.067 310.508 102.308 310.25C102.548 309.992 102.73 309.685 102.84 309.35Z" fill="black"/>
<path d="M110.88 325.7C111.77 324.44 114.45 324.78 114.45 324.78C114.45 324.78 115.69 327.18 114.81 328.45C114.657 328.767 114.437 329.048 114.165 329.271C113.893 329.495 113.576 329.658 113.235 329.747C112.895 329.836 112.539 329.85 112.192 329.787C111.845 329.725 111.516 329.589 111.228 329.387C110.939 329.185 110.698 328.922 110.52 328.618C110.343 328.314 110.234 327.974 110.201 327.624C110.168 327.273 110.212 326.919 110.329 326.587C110.446 326.255 110.634 325.952 110.88 325.7Z" fill="black"/>
<path d="M114.37 320.04C115.43 321.17 114.54 323.72 114.54 323.72C114.54 323.72 111.93 324.44 110.87 323.31C110.599 323.093 110.378 322.82 110.222 322.51C110.065 322.2 109.978 321.86 109.965 321.513C109.951 321.166 110.013 320.821 110.145 320.5C110.277 320.179 110.477 319.89 110.731 319.653C110.984 319.416 111.286 319.236 111.615 319.126C111.945 319.016 112.294 318.978 112.639 319.015C112.984 319.052 113.317 319.162 113.616 319.339C113.915 319.516 114.172 319.755 114.37 320.04Z" fill="black"/>
<path d="M118.69 323.06C117.25 322.51 115.22 324.3 115.22 324.3C115.22 324.3 115.53 326.98 116.98 327.53C117.283 327.702 117.62 327.806 117.967 327.835C118.314 327.865 118.663 327.819 118.991 327.701C119.319 327.583 119.617 327.396 119.866 327.152C120.114 326.909 120.308 326.614 120.432 326.289C120.557 325.963 120.609 325.615 120.587 325.267C120.564 324.92 120.467 324.581 120.302 324.275C120.136 323.968 119.907 323.701 119.628 323.491C119.35 323.282 119.03 323.135 118.69 323.06Z" fill="black"/>
<path d="M140.25 314C138.72 313.82 137.74 311.3 137.74 311.3C137.74 311.3 139.27 309.07 140.8 309.24C141.153 309.221 141.506 309.28 141.834 309.412C142.162 309.543 142.457 309.745 142.699 310.003C142.941 310.26 143.124 310.567 143.235 310.903C143.346 311.239 143.383 311.594 143.342 311.946C143.302 312.297 143.185 312.635 143 312.936C142.816 313.238 142.568 313.495 142.273 313.691C141.979 313.886 141.645 314.015 141.296 314.069C140.946 314.122 140.589 314.099 140.25 314Z" fill="black"/>
<path d="M133.64 313.63C134.13 312.16 136.8 311.73 136.8 311.73C136.8 311.73 138.67 313.73 138.18 315.15C138.119 315.492 137.985 315.818 137.787 316.104C137.589 316.39 137.332 316.63 137.033 316.807C136.734 316.985 136.4 317.096 136.055 317.133C135.709 317.17 135.359 317.132 135.029 317.021C134.699 316.911 134.397 316.731 134.143 316.493C133.89 316.255 133.69 315.966 133.558 315.644C133.426 315.322 133.365 314.975 133.379 314.628C133.394 314.28 133.482 313.94 133.64 313.63Z" fill="black"/>
<path d="M134.25 308.39C134.45 309.92 136.99 310.86 136.99 310.86C136.99 310.86 139.2 309.3 138.99 307.77C138.995 307.423 138.925 307.079 138.785 306.761C138.645 306.444 138.439 306.16 138.179 305.929C137.92 305.699 137.614 305.526 137.283 305.424C136.951 305.322 136.601 305.292 136.257 305.337C135.913 305.382 135.583 305.501 135.288 305.685C134.994 305.868 134.743 306.113 134.551 306.403C134.36 306.692 134.233 307.02 134.18 307.363C134.126 307.706 134.146 308.056 134.24 308.39H134.25Z" fill="black"/>
<path d="M142.44 286.39C140.9 286.22 139.93 283.69 139.93 283.69C139.93 283.69 141.45 281.46 142.99 281.63C143.336 281.621 143.681 281.686 144 281.822C144.319 281.957 144.605 282.16 144.839 282.415C145.073 282.671 145.249 282.974 145.356 283.304C145.463 283.634 145.498 283.983 145.458 284.327C145.418 284.671 145.305 285.003 145.126 285.3C144.947 285.597 144.706 285.851 144.42 286.047C144.134 286.243 143.809 286.374 143.467 286.434C143.126 286.493 142.775 286.478 142.44 286.39Z" fill="black"/>
<path d="M135.79 286.02C136.28 284.55 138.95 284.12 138.95 284.12C138.95 284.12 140.83 286.12 140.33 287.54C140.269 287.882 140.135 288.208 139.937 288.494C139.739 288.78 139.482 289.02 139.183 289.197C138.884 289.375 138.55 289.486 138.204 289.523C137.859 289.56 137.509 289.522 137.179 289.411C136.849 289.301 136.547 289.121 136.293 288.883C136.039 288.645 135.84 288.356 135.708 288.034C135.576 287.712 135.515 287.365 135.529 287.018C135.544 286.67 135.633 286.33 135.79 286.02Z" fill="black"/>
<path d="M136.39 280.78C136.6 282.31 139.13 283.25 139.13 283.25C139.13 283.25 141.35 281.69 141.13 280.16C141.14 279.809 141.073 279.46 140.935 279.137C140.797 278.814 140.59 278.525 140.329 278.29C140.069 278.054 139.76 277.878 139.425 277.773C139.089 277.669 138.735 277.638 138.387 277.684C138.039 277.729 137.704 277.849 137.407 278.036C137.11 278.223 136.857 278.473 136.665 278.767C136.473 279.061 136.348 279.394 136.297 279.741C136.246 280.089 136.271 280.443 136.37 280.78H136.39Z" fill="black"/>
<path d="M143.91 334.32C142.47 334.89 140.43 333.12 140.43 333.12C140.43 333.12 140.72 330.43 142.16 329.87C142.461 329.693 142.798 329.584 143.146 329.55C143.493 329.515 143.844 329.557 144.175 329.671C144.505 329.785 144.806 329.97 145.059 330.212C145.311 330.453 145.508 330.747 145.635 331.072C145.763 331.398 145.819 331.747 145.8 332.095C145.78 332.444 145.684 332.785 145.521 333.094C145.357 333.402 145.128 333.671 144.85 333.883C144.572 334.095 144.251 334.244 143.91 334.32Z" fill="black"/>
<path d="M137.88 337.12C137.62 335.6 139.77 333.96 139.77 333.96C139.77 333.96 142.34 334.8 142.6 336.32C142.708 336.651 142.744 337.001 142.704 337.347C142.664 337.692 142.551 338.025 142.371 338.323C142.191 338.621 141.949 338.876 141.661 339.072C141.373 339.268 141.047 339.399 140.704 339.457C140.361 339.515 140.009 339.499 139.673 339.409C139.337 339.319 139.025 339.157 138.757 338.935C138.489 338.714 138.272 338.437 138.12 338.123C137.969 337.81 137.887 337.468 137.88 337.12Z" fill="black"/>
<path d="M135.94 332.22C136.84 333.48 139.52 333.11 139.52 333.11C139.52 333.11 140.74 330.69 139.84 329.43C139.684 329.114 139.461 328.835 139.187 328.613C138.913 328.392 138.594 328.232 138.252 328.147C137.91 328.061 137.554 328.05 137.207 328.116C136.861 328.182 136.533 328.322 136.246 328.527C135.959 328.732 135.721 328.997 135.547 329.304C135.373 329.611 135.267 329.951 135.238 330.303C135.209 330.654 135.257 331.008 135.378 331.339C135.499 331.67 135.691 331.97 135.94 332.22Z" fill="black"/>
<path d="M124.8 355.78C126.33 356.01 127.21 358.57 127.21 358.57C127.21 358.57 125.61 360.75 124.08 360.51C123.731 360.51 123.387 360.435 123.07 360.29C122.753 360.144 122.471 359.932 122.244 359.668C122.016 359.403 121.849 359.093 121.753 358.758C121.656 358.423 121.634 358.071 121.686 357.726C121.739 357.381 121.865 357.052 122.057 356.761C122.248 356.469 122.5 356.223 122.796 356.038C123.092 355.853 123.424 355.734 123.77 355.69C124.116 355.645 124.467 355.676 124.8 355.78Z" fill="black"/>
<path d="M131.43 356.37C130.88 357.82 128.2 358.15 128.2 358.15C128.2 358.15 126.4 356.15 126.94 354.68C127.01 354.335 127.154 354.009 127.362 353.725C127.57 353.441 127.837 353.206 128.145 353.036C128.453 352.865 128.794 352.763 129.145 352.738C129.496 352.712 129.848 352.763 130.178 352.887C130.507 353.011 130.806 353.205 131.053 353.456C131.3 353.707 131.489 354.008 131.608 354.339C131.727 354.671 131.773 355.024 131.742 355.374C131.712 355.725 131.605 356.065 131.43 356.37Z" fill="black"/>
<path d="M130.63 361.58C130.49 360.04 127.99 359.01 127.99 359.01C127.99 359.01 125.72 360.49 125.86 362.01C125.844 362.356 125.901 362.702 126.03 363.024C126.159 363.346 126.355 363.637 126.606 363.876C126.857 364.116 127.156 364.299 127.484 364.412C127.811 364.526 128.159 364.568 128.505 364.536C128.85 364.503 129.184 364.397 129.484 364.224C129.785 364.051 130.045 363.815 130.246 363.533C130.448 363.251 130.587 362.929 130.653 362.588C130.719 362.248 130.711 361.897 130.63 361.56V361.58Z" fill="black"/>
<path d="M124.06 285.1C125.24 286.1 124.66 288.74 124.66 288.74C124.66 288.74 122.16 289.74 120.97 288.74C120.675 288.556 120.424 288.312 120.232 288.022C120.04 287.733 119.913 287.406 119.859 287.063C119.805 286.72 119.825 286.369 119.919 286.035C120.012 285.701 120.177 285.39 120.401 285.125C120.624 284.86 120.903 284.646 121.217 284.498C121.531 284.349 121.873 284.271 122.22 284.266C122.567 284.262 122.911 284.333 123.228 284.473C123.546 284.613 123.83 284.82 124.06 285.08V285.1Z" fill="black"/>
<path d="M129.39 289.08C128.17 290.08 125.71 288.91 125.71 288.91C125.71 288.91 125.22 286.25 126.44 285.3C126.679 285.041 126.971 284.836 127.297 284.701C127.623 284.566 127.974 284.504 128.327 284.518C128.679 284.533 129.024 284.623 129.338 284.784C129.651 284.946 129.926 285.173 130.143 285.451C130.36 285.729 130.514 286.051 130.594 286.394C130.674 286.738 130.679 287.095 130.607 287.44C130.535 287.785 130.389 288.111 130.179 288.394C129.969 288.677 129.7 288.911 129.39 289.08Z" fill="black"/>
<path d="M126 293.11C126.68 291.72 125.08 289.54 125.08 289.54C125.08 289.54 122.37 289.62 121.69 291.01C121.486 291.298 121.346 291.626 121.282 291.973C121.217 292.32 121.229 292.677 121.316 293.018C121.403 293.36 121.564 293.679 121.787 293.953C122.009 294.226 122.289 294.448 122.606 294.602C122.923 294.757 123.27 294.84 123.623 294.847C123.976 294.854 124.326 294.784 124.649 294.642C124.972 294.5 125.26 294.29 125.493 294.025C125.727 293.76 125.9 293.448 126 293.11Z" fill="black"/>
<path d="M73.1799 168.14C74.3699 169.14 73.78 171.78 73.78 171.78C73.78 171.78 71.2801 172.78 70.1001 171.78C69.8055 171.597 69.5537 171.353 69.3618 171.064C69.1699 170.775 69.0422 170.448 68.9875 170.106C68.9329 169.764 68.9524 169.413 69.0449 169.079C69.1374 168.745 69.3007 168.435 69.5237 168.169C69.7466 167.903 70.024 167.689 70.3371 167.539C70.6502 167.39 70.9916 167.31 71.3384 167.305C71.6851 167.299 72.0289 167.368 72.3467 167.507C72.6644 167.646 72.9486 167.852 73.1799 168.11V168.14Z" fill="black"/>
<path d="M78.5201 172.12C77.3001 173.12 74.8301 171.96 74.8301 171.96C74.8301 171.96 74.3501 169.3 75.5701 168.35C75.8095 168.097 76.1006 167.9 76.4234 167.77C76.7463 167.64 77.0934 167.581 77.441 167.598C77.7886 167.614 78.1284 167.705 78.4376 167.865C78.7467 168.025 79.0178 168.25 79.2322 168.524C79.4467 168.798 79.5995 169.115 79.6802 169.453C79.761 169.792 79.7679 170.144 79.7003 170.485C79.6327 170.826 79.4923 171.149 79.2886 171.431C79.085 171.713 78.8228 171.948 78.5201 172.12Z" fill="black"/>
<path d="M75.1202 176.16C75.8002 174.77 74.2001 172.59 74.2001 172.59C74.2001 172.59 71.5002 172.67 70.8202 174.06C70.6221 174.347 70.4883 174.673 70.4279 175.016C70.3674 175.359 70.3816 175.711 70.4698 176.048C70.5581 176.385 70.7181 176.7 70.9388 176.969C71.1596 177.239 71.436 177.457 71.7491 177.61C72.0622 177.763 72.4047 177.847 72.7531 177.855C73.1014 177.863 73.4474 177.797 73.7675 177.659C74.0875 177.521 74.3741 177.316 74.6075 177.057C74.841 176.799 75.016 176.493 75.1202 176.16Z" fill="black"/>
<path d="M80.79 189.52C81.61 188.2 84.3101 188.4 84.3101 188.4C84.3101 188.4 85.6801 190.73 84.8601 192.05C84.7202 192.367 84.5139 192.65 84.2551 192.881C83.9964 193.111 83.6911 193.283 83.3601 193.385C83.0291 193.487 82.68 193.517 82.3364 193.473C81.9928 193.429 81.6626 193.311 81.3684 193.128C81.0742 192.945 80.8227 192.701 80.6309 192.413C80.439 192.124 80.3114 191.798 80.2566 191.456C80.2018 191.114 80.221 190.764 80.313 190.43C80.405 190.096 80.5677 189.786 80.79 189.52Z" fill="black"/>
<path d="M83.97 183.67C85.09 184.74 84.3401 187.34 84.3401 187.34C84.3401 187.34 81.7699 188.2 80.6599 187.13C80.3764 186.929 80.1397 186.669 79.9656 186.368C79.7915 186.067 79.6842 185.732 79.6511 185.386C79.6181 185.04 79.6598 184.691 79.7737 184.363C79.8876 184.034 80.071 183.734 80.3113 183.483C80.5516 183.232 80.8432 183.036 81.1663 182.907C81.4893 182.779 81.8362 182.722 82.1834 182.739C82.5305 182.757 82.8699 182.849 83.1782 183.01C83.4865 183.17 83.7565 183.396 83.97 183.67Z" fill="black"/>
<path d="M88.45 186.45C86.98 185.98 85.05 187.87 85.05 187.87C85.05 187.87 85.51 190.54 86.98 191.01C87.2936 191.173 87.6392 191.266 87.9924 191.283C88.3457 191.299 88.698 191.238 89.0251 191.103C89.3523 190.969 89.6463 190.765 89.8865 190.506C90.1267 190.246 90.3075 189.937 90.416 189.601C90.5245 189.264 90.558 188.908 90.5146 188.557C90.4713 188.206 90.352 187.869 90.1648 187.569C89.9776 187.269 89.7271 187.013 89.4309 186.82C89.1347 186.627 88.8 186.501 88.45 186.45Z" fill="black"/>
<path d="M105.9 182.05C105.19 183.43 102.48 183.44 102.48 183.44C102.48 183.44 100.93 181.22 101.64 179.85C101.748 179.514 101.929 179.206 102.168 178.947C102.408 178.688 102.701 178.485 103.027 178.35C103.353 178.216 103.704 178.154 104.057 178.169C104.409 178.184 104.754 178.276 105.067 178.438C105.381 178.6 105.655 178.828 105.872 179.106C106.088 179.385 106.241 179.707 106.32 180.051C106.4 180.395 106.403 180.752 106.33 181.097C106.258 181.442 106.111 181.767 105.9 182.05Z" fill="black"/>
<path d="M103.19 188.13C101.99 187.13 102.54 184.5 102.54 184.5C102.54 184.5 105.03 183.44 106.23 184.42C106.547 184.588 106.822 184.824 107.036 185.111C107.251 185.398 107.399 185.729 107.471 186.08C107.542 186.431 107.535 186.794 107.45 187.142C107.365 187.49 107.205 187.815 106.979 188.094C106.754 188.372 106.47 188.598 106.147 188.754C105.825 188.91 105.471 188.992 105.113 188.996C104.755 188.999 104.4 188.923 104.075 188.774C103.749 188.624 103.461 188.404 103.23 188.13H103.19Z" fill="black"/>
<path d="M98.51 185.71C100.01 186.07 101.79 184.02 101.79 184.02C101.79 184.02 101.12 181.4 99.6101 181.02C99.287 180.892 98.94 180.834 98.5928 180.852C98.2455 180.87 97.9062 180.962 97.5979 181.123C97.2895 181.283 97.0194 181.508 96.8059 181.783C96.5924 182.057 96.4405 182.374 96.3606 182.713C96.2807 183.051 96.2748 183.403 96.343 183.744C96.4112 184.085 96.5521 184.407 96.7561 184.688C96.9601 184.97 97.2222 185.204 97.5249 185.375C97.8276 185.547 98.1636 185.65 98.51 185.68V185.71Z" fill="black"/>
<path d="M125.69 195.22C124.48 196.22 122.01 195.1 122.01 195.1C122.01 195.1 121.49 192.45 122.7 191.48C122.938 191.229 123.226 191.032 123.547 190.901C123.867 190.771 124.211 190.711 124.557 190.725C124.902 190.739 125.241 190.827 125.549 190.983C125.858 191.139 126.13 191.359 126.346 191.629C126.562 191.899 126.718 192.211 126.804 192.547C126.889 192.882 126.901 193.231 126.84 193.571C126.779 193.912 126.645 194.235 126.449 194.519C126.252 194.804 125.997 195.043 125.7 195.22H125.69Z" fill="black"/>
<path d="M120.75 199.68C120.05 198.3 121.63 196.1 121.63 196.1C121.63 196.1 124.33 196.1 125.03 197.52C125.238 197.805 125.382 198.131 125.452 198.477C125.521 198.823 125.515 199.18 125.432 199.523C125.35 199.866 125.194 200.187 124.975 200.464C124.756 200.741 124.48 200.966 124.165 201.125C123.85 201.284 123.503 201.373 123.151 201.385C122.798 201.396 122.447 201.331 122.122 201.194C121.797 201.056 121.506 200.85 121.269 200.588C121.032 200.327 120.855 200.017 120.75 199.68Z" fill="black"/>
<path d="M117.45 195.56C118.68 196.5 121.13 195.35 121.13 195.35C121.13 195.35 121.58 192.69 120.35 191.75C120.107 191.501 119.813 191.308 119.489 191.183C119.165 191.058 118.817 191.004 118.47 191.026C118.123 191.047 117.785 191.143 117.478 191.307C117.171 191.471 116.904 191.699 116.693 191.975C116.482 192.252 116.334 192.571 116.258 192.91C116.181 193.249 116.179 193.601 116.251 193.941C116.323 194.281 116.467 194.602 116.674 194.881C116.881 195.161 117.145 195.392 117.45 195.56Z" fill="black"/>
<path d="M141.25 225.47C140.04 226.47 137.56 225.35 137.56 225.35C137.56 225.35 137.05 222.7 138.26 221.73C138.498 221.479 138.786 221.282 139.106 221.151C139.427 221.021 139.771 220.961 140.117 220.975C140.462 220.989 140.801 221.077 141.109 221.233C141.418 221.389 141.689 221.609 141.906 221.879C142.122 222.149 142.278 222.461 142.364 222.797C142.449 223.132 142.461 223.481 142.4 223.821C142.339 224.162 142.205 224.485 142.009 224.769C141.812 225.054 141.557 225.293 141.26 225.47H141.25Z" fill="black"/>
<path d="M136.33 229.93C135.63 228.55 137.2 226.35 137.2 226.35C137.2 226.35 139.91 226.35 140.61 227.77C140.819 228.055 140.963 228.381 141.032 228.727C141.102 229.073 141.095 229.43 141.013 229.773C140.93 230.116 140.774 230.437 140.555 230.714C140.336 230.991 140.059 231.216 139.744 231.375C139.429 231.534 139.084 231.623 138.731 231.635C138.378 231.646 138.027 231.581 137.702 231.444C137.378 231.306 137.086 231.1 136.849 230.838C136.612 230.577 136.435 230.267 136.33 229.93Z" fill="black"/>
<path d="M133.03 225.78C134.26 226.72 136.71 225.57 136.71 225.57C136.71 225.57 137.16 222.91 135.93 221.97C135.687 221.721 135.393 221.528 135.069 221.403C134.745 221.278 134.397 221.224 134.05 221.246C133.703 221.267 133.365 221.363 133.058 221.527C132.751 221.691 132.484 221.919 132.273 222.195C132.063 222.472 131.914 222.791 131.838 223.13C131.762 223.469 131.759 223.821 131.831 224.161C131.903 224.501 132.047 224.822 132.254 225.101C132.461 225.381 132.726 225.612 133.03 225.78Z" fill="black"/>
<path d="M103.1 202.46C104.1 201.27 106.74 201.84 106.74 201.84C106.74 201.84 107.74 204.34 106.74 205.53C106.562 205.835 106.32 206.098 106.03 206.3C105.74 206.501 105.409 206.638 105.061 206.699C104.713 206.76 104.356 206.744 104.015 206.653C103.673 206.562 103.356 206.397 103.085 206.171C102.813 205.945 102.595 205.662 102.444 205.343C102.293 205.023 102.214 204.675 102.211 204.321C102.209 203.968 102.284 203.618 102.43 203.297C102.577 202.976 102.792 202.69 103.06 202.46H103.1Z" fill="black"/>
<path d="M107.06 197.11C108.06 198.32 106.91 200.79 106.91 200.79C106.91 200.79 104.25 201.29 103.3 200.07C103.059 199.829 102.872 199.54 102.751 199.222C102.63 198.904 102.577 198.564 102.596 198.224C102.616 197.884 102.706 197.552 102.862 197.25C103.019 196.947 103.237 196.681 103.503 196.469C103.769 196.256 104.077 196.103 104.407 196.017C104.737 195.932 105.08 195.917 105.416 195.974C105.752 196.031 106.072 196.158 106.355 196.347C106.638 196.536 106.878 196.782 107.06 197.07V197.11Z" fill="black"/>
<path d="M111.11 200.48C109.72 199.81 107.54 201.42 107.54 201.42C107.54 201.42 107.63 204.12 109.02 204.8C109.308 205.001 109.637 205.137 109.983 205.199C110.329 205.261 110.685 205.247 111.025 205.158C111.365 205.069 111.681 204.908 111.953 204.685C112.225 204.461 112.445 204.182 112.598 203.865C112.751 203.549 112.834 203.203 112.84 202.852C112.847 202.5 112.776 202.151 112.635 201.829C112.494 201.508 112.284 201.22 112.021 200.987C111.757 200.754 111.447 200.581 111.11 200.48Z" fill="black"/>
<path d="M129.82 248.55C130.82 247.36 133.46 247.93 133.46 247.93C133.46 247.93 134.46 250.43 133.46 251.62C133.277 251.914 133.034 252.166 132.746 252.358C132.457 252.551 132.131 252.679 131.789 252.734C131.447 252.789 131.098 252.77 130.763 252.679C130.429 252.587 130.119 252.425 129.853 252.203C129.587 251.981 129.372 251.705 129.222 251.393C129.072 251.08 128.991 250.739 128.984 250.393C128.977 250.047 129.044 249.703 129.182 249.385C129.319 249.067 129.523 248.782 129.78 248.55H129.82Z" fill="black"/>
<path d="M133.78 243.2C134.78 244.41 133.63 246.88 133.63 246.88C133.63 246.88 130.98 247.38 130.02 246.16C129.779 245.919 129.592 245.63 129.471 245.312C129.35 244.994 129.297 244.654 129.316 244.314C129.336 243.974 129.426 243.642 129.583 243.339C129.739 243.037 129.957 242.771 130.223 242.559C130.489 242.346 130.797 242.192 131.127 242.107C131.456 242.022 131.8 242.007 132.136 242.064C132.472 242.121 132.792 242.248 133.075 242.437C133.358 242.625 133.598 242.872 133.78 243.16V243.2Z" fill="black"/>
<path d="M137.83 246.57C136.44 245.9 134.27 247.51 134.27 247.51C134.27 247.51 134.35 250.22 135.75 250.89C136.039 251.093 136.368 251.231 136.715 251.293C137.062 251.356 137.418 251.343 137.76 251.254C138.101 251.165 138.419 251.003 138.691 250.779C138.964 250.555 139.184 250.274 139.337 249.956C139.49 249.639 139.572 249.291 139.578 248.939C139.583 248.586 139.511 248.236 139.368 247.914C139.224 247.592 139.013 247.305 138.747 247.073C138.482 246.841 138.169 246.669 137.83 246.57Z" fill="black"/>
<path d="M116.1 216.83C117.61 216.48 119.37 218.53 119.37 218.53C119.37 218.53 118.68 221.15 117.17 221.53C116.843 221.666 116.491 221.729 116.138 221.714C115.785 221.7 115.439 221.608 115.124 221.446C114.81 221.284 114.535 221.056 114.318 220.776C114.101 220.497 113.948 220.174 113.869 219.829C113.79 219.484 113.787 219.126 113.861 218.78C113.934 218.435 114.082 218.109 114.295 217.826C114.507 217.544 114.779 217.311 115.091 217.144C115.402 216.977 115.747 216.88 116.1 216.86V216.83Z" fill="black"/>
<path d="M122.49 214.96C122.49 216.51 120.14 217.8 120.14 217.8C120.14 217.8 117.72 216.59 117.7 215.04C117.645 214.697 117.664 214.347 117.756 214.013C117.848 213.678 118.011 213.367 118.234 213.102C118.457 212.836 118.734 212.621 119.047 212.471C119.36 212.322 119.702 212.241 120.049 212.236C120.396 212.23 120.74 212.299 121.058 212.438C121.376 212.576 121.66 212.782 121.892 213.04C122.123 213.299 122.296 213.604 122.4 213.935C122.503 214.266 122.534 214.616 122.49 214.96Z" fill="black"/>
<path d="M123.67 220.1C122.97 218.72 120.26 218.69 120.26 218.69C120.26 218.69 118.7 220.89 119.4 222.27C119.511 222.599 119.692 222.9 119.93 223.153C120.168 223.406 120.457 223.605 120.779 223.736C121.1 223.867 121.446 223.927 121.793 223.913C122.14 223.899 122.48 223.81 122.789 223.652C123.099 223.495 123.371 223.273 123.587 223.001C123.803 222.73 123.958 222.415 124.041 222.078C124.125 221.741 124.135 221.39 124.071 221.048C124.007 220.707 123.87 220.384 123.67 220.1Z" fill="black"/>
<path d="M185.25 249.78C183.82 250.36 181.75 248.6 181.75 248.6C181.75 248.6 182.02 245.91 183.46 245.33C183.761 245.148 184.099 245.033 184.449 244.994C184.799 244.955 185.153 244.992 185.487 245.104C185.821 245.215 186.127 245.398 186.384 245.639C186.64 245.881 186.841 246.175 186.973 246.502C187.104 246.829 187.163 247.18 187.145 247.532C187.127 247.884 187.033 248.228 186.869 248.539C186.705 248.851 186.476 249.124 186.196 249.338C185.916 249.552 185.594 249.703 185.25 249.78Z" fill="black"/>
<path d="M179.25 252.64C178.98 251.11 181.12 249.46 181.12 249.46C181.12 249.46 183.69 250.27 183.97 251.8C184.088 252.133 184.132 252.487 184.099 252.838C184.067 253.189 183.958 253.529 183.78 253.834C183.603 254.139 183.361 254.402 183.072 254.604C182.783 254.806 182.453 254.943 182.106 255.005C181.758 255.067 181.402 255.052 181.06 254.962C180.719 254.872 180.402 254.709 180.13 254.484C179.858 254.259 179.639 253.978 179.487 253.659C179.335 253.341 179.254 252.993 179.25 252.64Z" fill="black"/>
<path d="M177.25 247.78C178.16 249.03 180.84 248.64 180.84 248.64C180.84 248.64 182.03 246.21 181.12 244.96C180.958 244.652 180.732 244.383 180.457 244.171C180.182 243.958 179.865 243.807 179.526 243.728C179.188 243.65 178.836 243.645 178.496 243.714C178.155 243.783 177.833 243.925 177.552 244.13C177.272 244.334 177.038 244.597 176.868 244.9C176.697 245.203 176.595 245.539 176.566 245.886C176.537 246.232 176.583 246.58 176.701 246.907C176.819 247.234 177.007 247.532 177.25 247.78Z" fill="black"/>
<path d="M171.85 267.44C170.36 267.03 169.79 264.38 169.79 264.38C169.79 264.38 171.65 262.38 173.14 262.83C173.485 262.873 173.817 262.991 174.113 263.174C174.409 263.357 174.662 263.602 174.854 263.892C175.047 264.182 175.175 264.509 175.229 264.853C175.283 265.197 175.263 265.548 175.169 265.883C175.075 266.218 174.91 266.529 174.686 266.795C174.461 267.061 174.181 267.275 173.866 267.422C173.551 267.57 173.208 267.648 172.86 267.651C172.512 267.654 172.168 267.582 171.85 267.44Z" fill="black"/>
<path d="M165.35 266.04C166.06 264.66 168.77 264.66 168.77 264.66C168.77 264.66 170.31 266.87 169.6 268.25C169.486 268.578 169.302 268.877 169.062 269.127C168.821 269.378 168.53 269.574 168.207 269.702C167.885 269.829 167.539 269.887 167.192 269.869C166.845 269.851 166.507 269.759 166.199 269.599C165.891 269.439 165.621 269.215 165.407 268.941C165.194 268.667 165.042 268.351 164.961 268.014C164.881 267.676 164.874 267.325 164.941 266.984C165.008 266.644 165.148 266.322 165.35 266.04Z" fill="black"/>
<path d="M166.76 260.96C166.76 262.5 169.08 263.82 169.08 263.82C169.08 263.82 171.51 262.63 171.55 261.08C171.618 260.733 171.609 260.376 171.525 260.032C171.44 259.689 171.281 259.368 171.06 259.093C170.839 258.817 170.56 258.593 170.243 258.436C169.927 258.279 169.579 258.193 169.226 258.184C168.873 258.176 168.521 258.244 168.197 258.385C167.873 258.525 167.583 258.735 167.349 259C167.114 259.264 166.939 259.576 166.838 259.915C166.736 260.253 166.71 260.61 166.76 260.96Z" fill="black"/>
<path d="M161.25 250.32C161.16 251.86 158.69 252.98 158.69 252.98C158.69 252.98 156.37 251.58 156.46 250.04C156.424 249.69 156.465 249.336 156.58 249.004C156.694 248.671 156.879 248.367 157.123 248.113C157.366 247.859 157.662 247.661 157.989 247.532C158.317 247.404 158.668 247.348 159.019 247.368C159.37 247.389 159.713 247.485 160.023 247.651C160.334 247.817 160.604 248.049 160.816 248.329C161.028 248.61 161.177 248.933 161.252 249.277C161.327 249.621 161.326 249.977 161.25 250.32Z" fill="black"/>
<path d="M161.25 256.97C159.76 256.57 159.18 253.97 159.18 253.97C159.18 253.97 161.03 251.97 162.52 252.4C162.872 252.435 163.212 252.547 163.516 252.727C163.82 252.907 164.081 253.152 164.281 253.443C164.481 253.735 164.615 254.067 164.674 254.415C164.732 254.764 164.714 255.121 164.62 255.462C164.527 255.803 164.36 256.119 164.131 256.389C163.903 256.659 163.618 256.875 163.297 257.024C162.976 257.172 162.627 257.249 162.273 257.248C161.92 257.247 161.57 257.17 161.25 257.02V256.97Z" fill="black"/>
<path d="M156.01 256.67C157.53 256.38 158.32 253.79 158.32 253.79C158.32 253.79 156.64 251.67 155.12 251.96C154.767 251.968 154.42 252.052 154.103 252.207C153.786 252.362 153.506 252.584 153.284 252.859C153.061 253.133 152.901 253.452 152.815 253.794C152.729 254.137 152.718 254.494 152.783 254.841C152.849 255.188 152.989 255.516 153.195 255.803C153.4 256.09 153.665 256.329 153.972 256.503C154.28 256.678 154.621 256.783 154.973 256.811C155.325 256.84 155.679 256.792 156.01 256.67Z" fill="black"/>
<path d="M96.33 382.23H174.33C174.599 382.231 174.864 382.293 175.107 382.41C175.349 382.527 175.562 382.696 175.731 382.906C175.9 383.116 176.019 383.361 176.081 383.623C176.143 383.884 176.146 384.157 176.09 384.42L175.04 389.26C174.953 389.662 174.731 390.023 174.411 390.281C174.091 390.539 173.691 390.68 173.28 390.68H98.2098C97.8439 390.68 97.4866 390.569 97.1849 390.362C96.8832 390.155 96.6513 389.862 96.5199 389.52L94.6898 384.67C94.5897 384.401 94.5552 384.112 94.589 383.826C94.6228 383.541 94.7239 383.268 94.8842 383.029C95.0444 382.791 95.259 382.594 95.5104 382.455C95.7618 382.316 96.0428 382.239 96.33 382.23Z" stroke="black" stroke-miterlimit="10"/>
<path d="M102.51 398.3C103.38 398.3 169.07 390.68 169.07 390.68H101.72L102.51 398.3Z" fill="black"/>
<path d="M0.120117 355.27C144.66 391.87 358.68 534.35 590.97 297.93" stroke="black" stroke-miterlimit="10"/>
<path d="M525.69 87.5C549.714 87.5 569.19 68.0244 569.19 44C569.19 19.9756 549.714 0.5 525.69 0.5C501.666 0.5 482.19 19.9756 482.19 44C482.19 68.0244 501.666 87.5 525.69 87.5Z" stroke="black" stroke-miterlimit="10"/>
<path d="M525.69 14.59V44H552.97" stroke="black" stroke-miterlimit="10"/>
</g>
<defs>
<clipPath id="clip0_2_446">
<rect width="721.55" height="458.64" fill="white"/>
</clipPath>
</defs>
</svg>
